HIERARCHY
ROOT Hips
{
	OFFSET -0.001795 -0.223333 0.028219
	CHANNELS 6 Xposition Yposition Zposition Zrotation Yrotation Xrotation 
	JOINT LeftUpLeg
	{
		OFFSET 0.069520 -0.091406 -0.006815
		CHANNELS 3 Zrotation Yrotation Xrotation
		JOINT LeftLeg
		{
			OFFSET 0.034277 -0.375199 -0.004496
			CHANNELS 3 Zrotation Yrotation Xrotation
			JOINT LeftFoot
			{
				OFFSET -0.013596 -0.397961 -0.043693
				CHANNELS 3 Zrotation Yrotation Xrotation
				JOINT LeftToe
				{
					OFFSET 0.026358 -0.055791 0.119288
					CHANNELS 3 Zrotation Yrotation Xrotation
					End Site
					{
						OFFSET 0.000000 0.000000 0.000000
					}
				}
			}
		}
	}
	JOINT RightUpLeg
	{
		OFFSET -0.067670 -0.090522 -0.004320
		CHANNELS 3 Zrotation Yrotation Xrotation
		JOINT RightLeg
		{
			OFFSET -0.038290 -0.382569 -0.008850
			CHANNELS 3 Zrotation Yrotation Xrotation
			JOINT RightFoot
			{
				OFFSET 0.015774 -0.398415 -0.042312
				CHANNELS 3 Zrotation Yrotation Xrotation
				JOINT RightToe
				{
					OFFSET -0.025372 -0.048144 0.123348
					CHANNELS 3 Zrotation Yrotation Xrotation
					End Site
					{
						OFFSET 0.000000 0.000000 0.000000
					}
				}
			}
		}
	}
	JOINT Spine
	{
		OFFSET -0.002533 0.108963 -0.026696
		CHANNELS 3 Zrotation Yrotation Xrotation
		JOINT Spine1
		{
			OFFSET 0.005487 0.135180 0.001092
			CHANNELS 3 Zrotation Yrotation Xrotation
			JOINT Spine2
			{
				OFFSET 0.001457 0.052922 0.025425
				CHANNELS 3 Zrotation Yrotation Xrotation
				JOINT Neck
				{
					OFFSET -0.002778 0.213870 -0.042857
					CHANNELS 3 Zrotation Yrotation Xrotation
					JOINT Head
					{
						OFFSET 0.005152 0.064970 0.051349
						CHANNELS 3 Zrotation Yrotation Xrotation
						End Site
						{
							OFFSET 0.000000 0.000000 0.000000
						}
					}
				}
				JOINT LeftShoulder
				{
					OFFSET 0.078845 0.121749 -0.034090
					CHANNELS 3 Zrotation Yrotation Xrotation
					JOINT LeftArm
					{
						OFFSET 0.090977 0.030469 -0.008868
						CHANNELS 3 Zrotation Yrotation Xrotation
						JOINT LeftForeArm
						{
							OFFSET 0.259612 -0.012772 -0.027456
							CHANNELS 3 Zrotation Yrotation Xrotation
							JOINT LeftHand
							{
								OFFSET 0.249234 0.008986 -0.001171
								CHANNELS 3 Zrotation Yrotation Xrotation
								End Site
								{
									OFFSET 0.000000 0.000000 0.000000
								}
							}
						}
					}
				}
				JOINT RightShoulder
				{
					OFFSET -0.081759 0.118833 -0.038615
					CHANNELS 3 Zrotation Yrotation Xrotation
					JOINT RightArm
					{
						OFFSET -0.096012 0.032551 -0.009143
						CHANNELS 3 Zrotation Yrotation Xrotation
						JOINT RightForeArm
						{
							OFFSET -0.253742 -0.013329 -0.021401
							CHANNELS 3 Zrotation Yrotation Xrotation
							JOINT RightHand
							{
								OFFSET -0.255298 0.007772 -0.005559
								CHANNELS 3 Zrotation Yrotation Xrotation
								End Site
								{
									OFFSET 0.000000 0.000000 0.000000
								}
							}
						}
					}
				}
			}
		}
	}
}
MOTION
Frames: 16
Frame Time: 0.050000
0.024869 0.952390 -0.029253 -5.326688 34.369462 1.401819 10.273034 -1.152344 -0.871797 -3.684389 -0.241091 -9.201054 7.587766 19.064931 18.286949 0.000000 0.000000 0.000000 -2.746207 0.278283 -6.523865 2.765113 -0.532215 -1.349859 -2.505948 -5.049897 16.677911 0.000000 0.000000 0.000000 -3.180195 -1.536995 19.820601 4.449927 0.113868 -25.176379 -1.124588 -4.049715 27.275352 -8.419235 8.572266 -26.457667 0.000000 0.000000 0.000000 -16.809303 -11.031179 0.546976 -49.805777 -28.956409 4.207085 -3.419407 -41.320562 1.611315 0.000000 0.000000 0.000000 8.870316 14.034912 8.045824 63.848577 29.749706 10.098134 0.635675 44.333804 4.151890 0.000000 0.000000 0.000000 
0.026307 0.952177 -0.031081 -5.432547 34.466656 1.204672 10.485191 -1.186408 -0.778982 -3.813262 -0.252637 -9.210285 7.570992 19.024745 18.200398 0.000000 0.000000 0.000000 -2.724406 0.272760 -6.410261 2.839100 -0.546765 -1.381582 -2.591214 -5.191477 16.632664 0.000000 0.000000 0.000000 -3.460424 -1.544810 20.150822 4.826152 0.026788 -25.131130 -1.121315 -3.805493 27.084826 -8.019664 8.407737 -25.886141 0.000000 0.000000 0.000000 -16.597536 -10.661953 0.335291 -49.049535 -28.787247 4.066072 -2.965876 -41.594208 1.380250 0.000000 0.000000 0.000000 8.879681 14.264037 8.185187 64.219627 30.219973 10.561124 0.367522 43.850333 3.963215 0.000000 0.000000 0.000000 
0.027355 0.951929 -0.033206 -5.615764 34.576466 1.073261 10.598252 -1.204402 -0.819864 -3.731920 -0.254580 -9.266707 7.404794 18.872479 18.291120 0.000000 0.000000 0.000000 -2.614590 0.289697 -6.564252 2.920680 -0.563594 -1.215717 -2.640995 -5.267232 16.422343 0.000000 0.000000 0.000000 -3.622473 -1.549299 20.320136 5.055076 -0.026924 -24.961666 -0.956127 -3.468458 26.906885 -7.953740 8.428159 -25.535638 0.000000 0.000000 0.000000 -16.537236 -10.607192 0.218797 -48.472927 -28.946068 4.093549 -1.966969 -41.350117 0.936499 0.000000 0.000000 0.000000 8.935799 14.499708 8.356116 64.484961 30.559734 10.921326 -0.372542 43.247068 3.577352 0.000000 0.000000 0.000000 
0.028109 0.951746 -0.035505 -5.875485 34.738942 0.832994 10.668590 -1.214393 -0.927922 -3.610874 -0.242832 -9.129282 7.280856 18.665625 17.892321 0.000000 0.000000 0.000000 -2.468313 0.300048 -6.492265 3.089586 -0.596334 -1.336936 -2.880942 -5.670769 16.620767 0.000000 0.000000 0.000000 -3.762252 -1.586256 20.659323 5.293557 -0.080259 -24.876639 -0.870829 -3.050678 26.774124 -7.844794 8.447150 -24.628173 0.000000 0.000000 0.000000 -16.603108 -10.954070 0.246777 -47.689892 -28.989464 4.077680 -0.233895 -40.857248 0.217331 0.000000 0.000000 0.000000 9.063085 14.838233 8.607823 64.528181 30.678954 11.058911 -1.093986 42.811085 3.228070 0.000000 0.000000 0.000000 
0.028507 0.951741 -0.038039 -5.953897 35.134971 0.742236 10.670214 -1.224105 -1.007609 -3.404202 -0.251846 -9.310063 6.863944 18.285930 18.099741 0.000000 0.000000 0.000000 -2.505018 0.291262 -6.518156 3.104838 -0.601941 -1.468458 -3.015800 -5.846036 16.781695 0.000000 0.000000 0.000000 -3.933754 -1.650066 21.153763 5.298376 -0.073367 -24.807979 -0.720771 -2.904319 26.807415 -8.162802 8.663165 -24.471811 0.000000 0.000000 0.000000 -16.793085 -11.231036 0.257375 -46.960914 -29.622915 4.279143 1.224646 -39.248031 -0.313085 0.000000 0.000000 0.000000 8.982311 15.098233 8.741781 64.706986 30.842912 11.267939 -1.888334 42.309599 2.859359 0.000000 0.000000 0.000000 
0.028538 0.951859 -0.040799 -6.028168 35.403693 0.675690 10.711194 -1.231630 -1.200902 -3.257436 -0.258920 -9.448217 6.736844 18.225801 18.358298 0.000000 0.000000 0.000000 -2.559085 0.284319 -6.589800 3.192421 -0.619625 -1.632814 -3.107261 -5.964045 16.983438 0.000000 0.000000 0.000000 -3.940161 -1.751817 21.719977 5.282407 -0.066129 -24.934245 -0.676859 -2.593427 26.811001 -8.371457 8.823643 -24.068255 0.000000 0.000000 0.000000 -16.939077 -11.625251 0.314204 -46.326521 -30.469653 4.561647 2.836648 -37.359853 -0.841443 0.000000 0.000000 0.000000 8.645477 15.277925 8.756336 64.913442 30.859395 11.466090 -2.231483 42.183148 2.708634 0.000000 0.000000 0.000000 
0.028180 0.952327 -0.043733 -6.150621 35.872434 0.673196 10.767889 -1.241938 -1.596341 -3.248820 -0.270743 -9.443862 6.765432 18.384676 18.795945 0.000000 0.000000 0.000000 -2.637942 0.275420 -6.762288 3.285622 -0.640805 -1.673877 -3.163262 -5.981900 17.155418 0.000000 0.000000 0.000000 -3.915749 -1.874727 22.312311 5.062211 -0.002254 -24.874239 -0.706512 -2.529527 26.579171 -8.603316 8.964159 -23.803968 0.000000 0.000000 0.000000 -16.657452 -11.788676 0.380055 -46.045503 -31.439337 4.877765 3.984533 -35.400598 -1.148623 0.000000 0.000000 0.000000 8.412545 15.227624 8.684343 65.226936 30.762343 11.616380 -2.340229 42.445992 2.704102 0.000000 0.000000 0.000000 
0.027614 0.952659 -0.046401 -6.282779 36.297006 0.711428 10.925733 -1.264442 -2.052354 -3.391699 -0.283490 -9.322974 6.517961 18.207341 19.006666 0.000000 0.000000 0.000000 -2.733922 0.269195 -7.030130 3.431038 -0.671203 -1.685925 -3.241232 -6.055741 17.232213 0.000000 0.000000 0.000000 -3.814503 -2.004166 22.834980 4.778223 0.071948 -25.405590 -0.748055 -2.626287 26.905942 -8.897532 9.136791 -24.009059 0.000000 0.000000 0.000000 -16.645644 -12.162593 0.549160 -45.899030 -33.003785 5.389839 5.292347 -33.166226 -1.404932 0.000000 0.000000 0.000000 8.070612 15.173706 8.554411 65.409141 30.576036 11.615885 -1.826082 43.034683 2.968606 0.000000 0.000000 0.000000 
0.027163 0.953065 -0.048381 -6.239379 36.703541 0.849952 10.920837 -1.265627 -2.456624 -3.565364 -0.304379 -9.286316 6.498381 18.261370 19.192250 0.000000 0.000000 0.000000 -2.791535 0.258366 -7.114656 3.419511 -0.671650 -1.887456 -3.287447 -6.055294 17.476449 0.000000 0.000000 0.000000 -3.766743 -2.037501 22.882373 4.616894 0.122578 -25.288869 -0.933757 -2.731548 26.750801 -9.172318 9.283090 -23.824848 0.000000 0.000000 0.000000 -16.426154 -12.300052 0.621804 -45.924128 -34.132044 5.790339 5.774209 -31.690862 -1.452639 0.000000 0.000000 0.000000 7.991129 14.991603 8.463317 65.411450 30.179217 11.405772 -1.246245 43.376610 3.240093 0.000000 0.000000 0.000000 
0.027183 0.953160 -0.049492 -6.267678 37.129475 0.824862 10.904273 -1.269225 -2.679355 -3.766781 -0.325122 -9.212128 6.624739 18.475199 19.469883 0.000000 0.000000 0.000000 -3.028123 0.219469 -7.119677 3.619385 -0.713382 -1.952647 -3.467371 -6.298352 17.780417 0.000000 0.000000 0.000000 -3.776582 -2.064977 22.922555 4.340083 0.190750 -25.529634 -0.994686 -2.886319 26.867062 -9.317952 9.377070 -23.917451 0.000000 0.000000 0.000000 -16.193550 -12.408037 0.690006 -46.713093 -35.096139 6.232882 6.403858 -30.820915 -1.567595 0.000000 0.000000 0.000000 7.748034 14.864115 8.337279 65.456536 30.039845 11.384158 -0.653503 43.532489 3.488125 0.000000 0.000000 0.000000 
0.027581 0.953124 -0.049922 -6.043146 37.310493 0.725642 10.644167 -1.235403 -2.610922 -3.818716 -0.325769 -9.095960 6.660081 18.465659 19.251985 0.000000 0.000000 0.000000 -3.286939 0.168668 -6.797346 3.626971 -0.717242 -1.971535 -3.447514 -6.249884 17.776303 0.000000 0.000000 0.000000 -3.827415 -2.083382 23.038013 3.925405 0.283689 -25.935218 -0.909278 -3.010950 27.125319 -9.363612 9.420718 -23.830888 0.000000 0.000000 0.000000 -16.438882 -12.430062 0.659672 -47.201858 -35.826807 6.595451 6.011522 -30.128593 -1.387595 0.000000 0.000000 0.000000 7.459137 14.685912 8.155106 65.619236 30.019242 11.448214 0.061874 43.143104 3.701147 0.000000 0.000000 0.000000 
0.028193 0.952928 -0.050073 -5.938312 37.523911 0.689248 10.544258 -1.229382 -2.495595 -3.945840 -0.341355 -9.093198 6.599064 18.403405 19.252704 0.000000 0.000000 0.000000 -3.545684 0.120595 -6.573300 3.694578 -0.732418 -2.059283 -3.556909 -6.416283 17.767811 0.000000 0.000000 0.000000 -3.781752 -2.077325 22.897114 3.713983 0.336556 -25.840205 -1.062482 -3.137722 27.018609 -9.504187 9.492851 -23.774671 0.000000 0.000000 0.000000 -16.293965 -12.379978 0.645027 -48.580211 -36.719748 7.192953 5.667689 -29.309374 -1.230317 0.000000 0.000000 0.000000 7.104222 14.487487 7.955328 66.124764 30.011266 11.705913 0.707149 42.930263 3.922265 0.000000 0.000000 0.000000 
0.028785 0.952606 -0.050256 -5.914155 37.513708 0.574237 10.452919 -1.213681 -2.525516 -3.980185 -0.322214 -8.790995 6.773144 18.530169 19.027760 0.000000 0.000000 0.000000 -3.691513 0.097609 -6.528950 3.768323 -0.748670 -1.835435 -3.576139 -6.460652 17.736247 0.000000 0.000000 0.000000 -3.676794 -2.067389 22.724304 3.501099 0.376858 -26.099638 -1.003756 -3.002474 27.116045 -9.375694 9.459480 -23.748173 0.000000 0.000000 0.000000 -16.321567 -12.655955 0.721386 -49.424462 -37.300673 7.591016 5.272097 -28.581660 -1.079645 0.000000 0.000000 0.000000 7.129220 14.609040 8.039077 66.118374 30.651837 12.140219 0.523920 41.953931 3.691215 0.000000 0.000000 0.000000 
0.029352 0.952359 -0.050668 -5.970532 37.208238 0.614737 10.533007 -1.212869 -2.712185 -4.024972 -0.298247 -8.517337 6.794224 18.485010 18.712299 0.000000 0.000000 0.000000 -3.848725 0.090020 -6.814176 3.968661 -0.785722 -1.641498 -3.483607 -6.355797 17.605060 0.000000 0.000000 0.000000 -3.762014 -1.971212 22.348748 3.556733 0.360329 -26.002425 -0.926673 -2.955830 27.121300 -9.193539 9.361147 -23.671480 0.000000 0.000000 0.000000 -16.165841 -12.652096 0.764185 -49.996047 -37.801283 7.890172 5.522045 -27.461912 -1.067855 0.000000 0.000000 0.000000 7.146883 14.927601 8.186150 66.085199 31.430537 12.630823 0.262418 41.491724 3.504649 0.000000 0.000000 0.000000 
0.030011 0.952230 -0.051165 -6.113519 36.835387 0.719882 10.517492 -1.197062 -2.969742 -3.892323 -0.266737 -8.327060 6.895185 18.581137 18.637909 0.000000 0.000000 0.000000 -3.777252 0.118064 -7.143326 3.947100 -0.776324 -1.634213 -3.379522 -6.207140 17.853997 0.000000 0.000000 0.000000 -3.800746 -1.880585 21.965103 3.596156 0.347847 -25.892598 -0.836012 -2.883718 27.068253 -8.912538 9.206860 -23.604740 0.000000 0.000000 0.000000 -16.091755 -12.734349 0.851865 -50.136630 -38.038432 8.001577 5.373309 -26.762049 -0.976459 0.000000 0.000000 0.000000 7.314041 15.243498 8.373934 65.854402 32.091150 12.946680 0.277151 41.397107 3.463225 0.000000 0.000000 0.000000 
0.030960 0.952306 -0.051628 -6.206569 36.488107 0.934376 10.448667 -1.177936 -3.262346 -4.004741 -0.267117 -8.328694 7.478946 19.206169 18.723694 0.000000 0.000000 0.000000 -3.699586 0.148829 -7.586099 3.866680 -0.758482 -1.448314 -3.193516 -5.918336 17.863374 0.000000 0.000000 0.000000 -3.877796 -1.795177 21.630410 3.549921 0.348878 -25.946211 -0.636843 -2.823255 27.127692 -8.618293 9.053868 -23.499625 0.000000 0.000000 0.000000 -16.066885 -12.891166 0.947305 -50.242386 -38.168030 8.069192 5.408197 -26.167979 -0.942722 0.000000 0.000000 0.000000 7.308273 15.380490 8.434170 65.873403 32.610613 13.287304 0.328180 41.252278 3.456600 0.000000 0.000000 0.000000 
